<svg width="864" height="996" viewBox="0 0 864 996" fill="none" xmlns="http://www.w3.org/2000/svg">
<path d="M537.667 70.3166C573.084 18.4083 707.679 1.03344 707.679 1.03344L863.845 867.712L462.473 940.034C462.473 940.034 107.141 866.6 111.618 732.48C116.095 598.359 256.794 596.771 227.427 433.791C212.603 351.517 289.37 290.435 341.799 270.326C385.347 253.623 447.104 246.617 479.736 211.662C531.3 156.427 495.316 132.388 537.667 70.3166Z" fill="url(#paint0_linear_8532_15)"/>
<path d="M537.667 70.3166C573.084 18.4083 707.679 1.03344 707.679 1.03344L863.845 867.712L462.473 940.034C462.473 940.034 107.141 866.6 111.618 732.48C116.095 598.359 256.794 596.771 227.427 433.791C212.603 351.517 289.37 290.435 341.799 270.326C385.347 253.623 447.104 246.617 479.736 211.662C531.3 156.427 495.316 132.388 537.667 70.3166Z" fill="url(#paint1_linear_8532_15)"/>
<defs>
<linearGradient id="paint0_linear_8532_15" x1="52.318" y1="235.076" x2="555.908" y2="316.863" gradientUnits="userSpaceOnUse">
<stop offset="0.00612331" stop-color="#1A1B3D"/>
<stop offset="1" stop-color="#1E2048" stop-opacity="0"/>
</linearGradient>
<linearGradient id="paint1_linear_8532_15" x1="52.318" y1="235.076" x2="555.908" y2="316.863" gradientUnits="userSpaceOnUse">
<stop offset="0.00612331" stop-color="#1A1B3D"/>
<stop offset="1" stop-color="#1E2048" stop-opacity="0"/>
</linearGradient>
</defs>
</svg>
