<svg width="718" height="881" viewBox="0 0 718 881" fill="none" xmlns="http://www.w3.org/2000/svg">
<path d="M179.604 38.4009C135.543 -6.40419 0 0.36441 0 0.36441L0 881H407.835C407.835 881 744.514 745.718 716.324 614.517C688.133 483.317 549.383 506.704 549.383 341.099C549.383 257.5 463 211 407.835 200.506C362.016 191.791 299.996 195.847 261.682 167.233C201.14 122.017 232.291 91.9784 179.604 38.4009Z" fill="url(#paint0_linear_8532_14)"/>
<path d="M179.604 38.4009C135.543 -6.40419 0 0.36441 0 0.36441L0 881H407.835C407.835 881 744.514 745.718 716.324 614.517C688.133 483.317 549.383 506.704 549.383 341.099C549.383 257.5 463 211 407.835 200.506C362.016 191.791 299.996 195.847 261.682 167.233C201.14 122.017 232.291 91.9784 179.604 38.4009Z" fill="url(#paint1_linear_8532_14)"/>
<defs>
<linearGradient id="paint0_linear_8532_14" x1="686.478" y1="114.481" x2="205.372" y2="284.275" gradientUnits="userSpaceOnUse">
<stop offset="0.00612331" stop-color="#1A1B3D"/>
<stop offset="1" stop-color="#1E2048" stop-opacity="0"/>
</linearGradient>
<linearGradient id="paint1_linear_8532_14" x1="686.478" y1="114.481" x2="205.372" y2="284.275" gradientUnits="userSpaceOnUse">
<stop offset="0.00612331" stop-color="#1A1B3D"/>
<stop offset="1" stop-color="#1E2048" stop-opacity="0"/>
</linearGradient>
</defs>
</svg>
