<svg width="66" height="66" viewBox="0 0 66 66" fill="none" xmlns="http://www.w3.org/2000/svg">
<circle cx="33.0654" cy="32.9347" r="23.5" transform="rotate(119.509 33.0654 32.9347)" stroke="url(#paint0_linear_8519_4)"/>
<g clip-path="url(#clip0_8519_4)">
<path d="M37.1425 31.2427C37.2859 31.2427 37.4242 31.2657 37.5574 31.3041L40.042 28.2587C40.2008 28.064 40.4953 28.0281 40.6874 28.1921C40.8744 28.3483 40.9 28.6275 40.7438 28.817L38.2874 31.8292C38.4539 32.0597 38.5538 32.3441 38.5538 32.6514C38.5538 33.2226 38.2106 33.717 37.7214 33.9372H47.3598C47.7132 33.9372 48.0001 33.6504 48.0001 33.2969V25.1901C48.0001 24.8367 47.7132 24.5498 47.3598 24.5498H35.1164C34.763 24.5498 34.4761 24.8367 34.4761 25.1901V30.5127L35.055 31.2452H37.1425V31.2427Z" fill="url(#paint1_linear_8519_4)"/>
<path d="M29.156 27.7438C30.6046 27.7438 31.7789 26.5696 31.7789 25.121C31.7789 23.6725 30.6046 22.4982 29.156 22.4982C27.7075 22.4982 26.5332 23.6725 26.5332 25.121C26.5332 26.5696 27.7075 27.7438 29.156 27.7438Z" fill="url(#paint2_linear_8519_4)"/>
<path d="M31.8455 44.8615C31.8455 45.215 31.5586 45.5018 31.2052 45.5018H30.1294C29.7759 45.5018 29.489 45.215 29.489 44.8615V39.4928C29.489 39.3033 29.3354 39.1496 29.1458 39.1496C28.9563 39.1496 28.8026 39.3033 28.8026 39.4928V44.8358C28.8026 45.2021 28.5029 45.5018 28.1366 45.5018H27.0839C26.7304 45.5018 26.4436 45.215 26.4436 44.8615L26.4385 31.901C26.4385 31.7268 26.2976 31.5834 26.1208 31.5834C25.9467 31.5834 25.8032 31.7242 25.8032 31.901V36.8854C25.8032 37.2388 25.5164 37.5257 25.1629 37.5257H24.6404C24.2869 37.5257 24 37.2388 24 36.8854V30.0516C24 29.2397 24.6583 28.584 25.4677 28.584H31.2999C31.9249 28.584 32.5166 28.8709 32.9059 29.3601L34.4734 31.3375L34.8038 31.755C34.8038 31.755 36.2894 31.755 37.1449 31.7575C37.4984 31.7575 37.7853 32.0444 37.7853 32.3979V32.9076C37.7853 33.261 37.4984 33.5479 37.1449 33.5479H34.3736C34.0995 33.5479 33.8408 33.4224 33.6717 33.2072L32.5038 31.7063C32.4449 31.6294 32.3501 31.5833 32.2528 31.5833H32.1733C31.9992 31.5833 31.8558 31.7242 31.8558 31.9009L31.8455 44.8615Z" fill="url(#paint3_linear_8519_4)"/>
</g>
<circle cx="16" cy="40" r="1" fill="#6ABC9C"/>
<circle cx="51" cy="13" r="1" fill="#6ABC9C"/>
<circle cx="8.50003" cy="41.5" r="0.5" fill="#6ABC9C"/>
<circle cx="13.5" cy="46.5" r="0.5" fill="#6ABC9C"/>
<circle cx="55.5" cy="17.5" r="0.5" fill="#6ABC9C"/>
<circle cx="52.5" cy="24.5" r="0.5" fill="#6ABC9C"/>
<defs>
<linearGradient id="paint0_linear_8519_4" x1="33.0654" y1="8.93468" x2="33.0654" y2="56.9347" gradientUnits="userSpaceOnUse">
<stop stop-color="#4DB88D"/>
<stop offset="1" stop-color="#2C2E59"/>
</linearGradient>
<linearGradient id="paint1_linear_8519_4" x1="41.2381" y1="24.5498" x2="41.2381" y2="33.9372" gradientUnits="userSpaceOnUse">
<stop stop-color="#4DB68D"/>
<stop offset="1" stop-color="#8CC3AE"/>
</linearGradient>
<linearGradient id="paint2_linear_8519_4" x1="29.156" y1="22.4982" x2="29.156" y2="27.7438" gradientUnits="userSpaceOnUse">
<stop stop-color="#4DB68D"/>
<stop offset="1" stop-color="#8CC3AE"/>
</linearGradient>
<linearGradient id="paint3_linear_8519_4" x1="30.8927" y1="28.584" x2="30.8927" y2="45.5018" gradientUnits="userSpaceOnUse">
<stop stop-color="#4DB68D"/>
<stop offset="1" stop-color="#8CC3AE"/>
</linearGradient>
<clipPath id="clip0_8519_4">
<rect width="24" height="24" fill="white" transform="translate(24 22)"/>
</clipPath>
</defs>
</svg>
